<?xml version="1.0" encoding="utf-8"?>
<!-- Generator: Adobe Illustrator 16.0.0, SVG Export Plug-In . SVG Version: 6.00 Build 0)  -->
<!DOCTYPE svg PUBLIC "-//W3C//DTD SVG 1.1//EN" "http://www.w3.org/Graphics/SVG/1.1/DTD/svg11.dtd">
<svg version="1.1" id="Layer_1" xmlns="http://www.w3.org/2000/svg" xmlns:xlink="http://www.w3.org/1999/xlink" x="0px" y="0px"
	 width="595.28px" height="841.89px" viewBox="0 0 595.28 841.89" enable-background="new 0 0 595.28 841.89" xml:space="preserve">
<polygon fill="#FFFFFF" points="110.335,623.419 69.332,623.419 69.332,651.969 106.309,651.969 106.309,662.788 69.332,662.788 
	69.332,691.337 110.335,691.337 110.335,702.407 57.759,702.407 57.759,612.352 110.335,612.352 "/>
<polygon fill="#FFFFFF" points="171.461,702.407 157.878,702.407 142.659,679.641 127.692,702.407 114.107,702.407 135.868,671.087 
	114.609,640.774 127.692,640.774 142.91,662.533 157.374,640.774 170.958,640.774 149.451,671.087 "/>
<path fill="#FFFFFF" d="M203.659,703.411c-6.458,0-11.382-1.718-14.778-5.156c-3.397-3.437-5.094-8.3-5.094-14.591v-32.321h-10.817
	v-10.568h10.817V621.91h11.571v18.864h15.093v10.568h-15.093v31.444c0,6.708,2.768,10.06,8.301,10.06
	c2.096,0,3.856-0.333,5.282-1.008l4.026,9.939C210.45,702.864,207.347,703.411,203.659,703.411"/>
<path fill="#FFFFFF" d="M246.295,704.419c-9.307,0-16.876-3.101-22.701-9.307c-5.829-6.207-8.743-14.044-8.743-23.52
	c0-8.975,2.831-16.688,8.492-23.145c5.659-6.455,12.891-9.686,21.694-9.686c9.14,0,16.455,2.977,21.95,8.933
	c5.491,5.955,8.237,13.919,8.237,23.897l-0.125,2.135h-48.675c0.336,6.207,2.409,11.112,6.226,14.718
	c3.814,3.605,8.278,5.408,13.395,5.408c8.301,0,13.919-3.521,16.855-10.564l10.314,4.273c-2.015,4.782-5.326,8.788-9.936,12.012
	C258.665,702.805,253.002,704.419,246.295,704.419 M262.899,664.17c-0.251-3.521-1.868-6.875-4.844-10.06
	c-2.978-3.188-7.398-4.782-13.267-4.782c-4.277,0-7.987,1.343-11.132,4.025c-3.143,2.684-5.304,6.289-6.477,10.816H262.899z"/>
<path fill="#FFFFFF" d="M294.343,640.774v8.554h0.502c1.678-2.934,4.318-5.428,7.923-7.484c3.605-2.051,7.466-3.081,11.573-3.081
	c7.628,0,13.456,2.351,17.485,7.045c4.022,4.697,6.037,10.985,6.037,18.864v37.735h-11.572v-35.975
	c0-11.403-5.076-17.104-15.221-17.104c-4.778,0-8.677,1.907-11.697,5.725c-3.019,3.816-4.528,8.237-4.528,13.267v34.088h-11.57
	v-61.633H294.343z"/>
<path fill="#FFFFFF" d="M374.712,704.419c-7.967,0-14.842-3.143-20.628-9.435c-5.783-6.288-8.678-14.085-8.678-23.392
	s2.895-17.107,8.678-23.396c5.786-6.289,12.661-9.435,20.628-9.435c4.697,0,8.912,1.008,12.642,3.019
	c3.729,2.012,6.52,4.528,8.364,7.547h0.503l-0.503-8.551v-28.429h11.573v90.059h-11.07v-8.554h-0.503
	c-1.845,3.019-4.635,5.535-8.364,7.547C383.624,703.411,379.409,704.419,374.712,704.419 M376.6,693.854
	c5.447,0,10.082-2.011,13.896-6.037c3.817-4.025,5.725-9.434,5.725-16.224c0-6.794-1.907-12.202-5.725-16.228
	c-3.814-4.022-8.449-6.037-13.896-6.037c-5.366,0-9.979,2.034-13.838,6.103c-3.854,4.064-5.783,9.453-5.783,16.162
	c0,6.705,1.93,12.094,5.783,16.162C366.621,691.823,371.233,693.854,376.6,693.854"/>
<path fill="#FFFFFF" d="M446.154,704.419c-9.311,0-16.88-3.101-22.701-9.307c-5.829-6.207-8.743-14.044-8.743-23.52
	c0-8.975,2.829-16.688,8.488-23.145c5.659-6.455,12.893-9.686,21.697-9.686c9.141,0,16.456,2.977,21.948,8.933
	c5.493,5.955,8.237,13.919,8.237,23.897l-0.123,2.135h-48.676c0.332,6.207,2.405,11.112,6.227,14.718
	c3.813,3.605,8.276,5.408,13.391,5.408c8.303,0,13.92-3.521,16.856-10.564l10.314,4.273c-2.015,4.782-5.326,8.788-9.936,12.012
	C458.521,702.805,452.859,704.419,446.154,704.419 M462.756,664.17c-0.251-3.521-1.867-6.875-4.844-10.06
	c-2.977-3.188-7.396-4.782-13.268-4.782c-4.276,0-7.986,1.343-11.132,4.025c-3.143,2.684-5.304,6.289-6.478,10.816H462.756z"/>
<path fill="#FFFFFF" d="M509.544,704.419c-7.967,0-14.845-3.143-20.628-9.435c-5.786-6.288-8.678-14.085-8.678-23.392
	s2.892-17.107,8.678-23.396c5.783-6.289,12.661-9.435,20.628-9.435c4.694,0,8.909,1.008,12.642,3.019
	c3.729,2.012,6.52,4.528,8.365,7.547h0.502l-0.502-8.551v-28.429h11.568v90.059h-11.066v-8.554h-0.502
	c-1.846,3.019-4.636,5.535-8.365,7.547C518.453,703.411,514.238,704.419,509.544,704.419 M511.429,693.854
	c5.45,0,10.085-2.011,13.899-6.037c3.814-4.025,5.725-9.434,5.725-16.224c0-6.794-1.91-12.202-5.725-16.228
	c-3.814-4.022-8.449-6.037-13.899-6.037c-5.366,0-9.976,2.034-13.835,6.103c-3.856,4.064-5.786,9.453-5.786,16.162
	c0,6.705,1.93,12.094,5.786,16.162C501.453,691.823,506.062,693.854,511.429,693.854"/>
<path fill="#FFFFFF" d="M119.145,152.726c-33.801,0-62.167-27.519-62.167-61.317c0-33.801,28.367-61.317,62.167-61.317
	c18.693,0,32.005,7.328,42.024,16.899l-11.815,11.817c-7.178-6.731-16.9-11.967-30.209-11.967c-24.677,0-43.97,19.891-43.97,44.568
	c0,24.673,19.293,44.565,43.97,44.565c16.002,0,25.125-6.432,30.958-12.264c4.786-4.785,7.925-11.664,9.121-21.084h-40.08V85.874
	h56.38c0.6,2.993,0.896,6.582,0.896,10.467c0,12.563-3.439,28.119-14.506,39.186C151.149,146.741,137.388,152.726,119.145,152.726"
	/>
<path fill="#FFFFFF" d="M261.531,113.243c0,22.73-17.793,39.482-39.629,39.482c-21.834,0-39.631-16.752-39.631-39.482
	c0-22.884,17.797-39.483,39.631-39.483C243.738,73.76,261.531,90.359,261.531,113.243 M244.186,113.243
	c0-14.209-10.32-23.927-22.284-23.927c-11.965,0-22.284,9.718-22.284,23.927c0,14.06,10.319,23.927,22.284,23.927
	C233.866,137.17,244.186,127.303,244.186,113.243"/>
<path fill="#FFFFFF" d="M347.521,113.243c0,22.73-17.795,39.482-39.629,39.482c-21.834,0-39.631-16.752-39.631-39.482
	c0-22.884,17.797-39.483,39.631-39.483C329.727,73.76,347.521,90.359,347.521,113.243 M330.177,113.243
	c0-14.209-10.32-23.927-22.284-23.927c-11.965,0-22.284,9.718-22.284,23.927c0,14.06,10.319,23.927,22.284,23.927
	C319.856,137.17,330.177,127.303,330.177,113.243"/>
<path fill="#FFFFFF" d="M429.868,76.013v71.028c0,29.166-17.199,41.129-37.537,41.129c-19.145,0-30.658-12.863-34.994-23.33
	l15.103-6.282c2.693,6.432,9.274,14.056,19.892,14.056c13.01,0,21.088-8.075,21.088-23.181v-5.682h-0.6
	c-3.886,4.786-11.364,8.974-20.788,8.974c-19.738,0-37.837-17.202-37.837-39.333c0-22.284,18.099-39.633,37.837-39.633
	c9.424,0,16.902,4.189,20.788,8.824h0.6v-6.572H429.868z M414.612,113.393c0-13.91-9.271-24.077-21.085-24.077
	c-11.963,0-21.983,10.167-21.983,24.077c0,13.756,10.021,23.78,21.983,23.78C405.341,137.173,414.612,127.149,414.612,113.393"/>
<rect x="441.085" y="34.277" fill="#FFFFFF" width="17.349" height="116.052"/>
<path fill="#FFFFFF" d="M525.019,126.253l13.46,8.974c-4.336,6.432-14.807,17.499-32.901,17.499
	c-22.431,0-39.18-17.349-39.18-39.482c0-23.48,16.896-39.483,37.233-39.483c20.491,0,30.512,16.302,33.801,25.126l1.796,4.485
	l-52.796,21.834c4.043,7.928,10.321,11.967,19.146,11.967S520.529,132.834,525.019,126.253 M483.593,112.046l35.294-14.656
	c-1.942-4.936-7.777-8.375-14.656-8.375C495.406,89.016,483.146,96.791,483.593,112.046"/>
<rect x="47.219" y="234.488" fill="#FED330" width="129.238" height="258.479"/>
<rect x="231.208" y="183.802" transform="matrix(0.9754 0.2206 -0.2206 0.9754 87.0589 -44.0496)" fill="#31E7B6" width="19.093" height="367.933"/>
<path fill="#FED330" d="M416.47,229.875c-73.926,0-133.852,59.928-133.852,133.854c0,73.925,59.926,133.854,133.852,133.854
	c73.927,0,133.854-59.929,133.854-133.854C550.324,289.804,490.396,229.875,416.47,229.875 M416.47,478.569
	c-63.423,0-114.839-51.417-114.839-114.839c0-63.426,51.416-114.843,114.839-114.843c63.427,0,114.844,51.417,114.844,114.843
	C531.313,427.152,479.896,478.569,416.47,478.569"/>
<polygon fill="#31E7B6" points="389.909,396.602 389.909,348.494 378.924,353.123 374.568,343.046 392.811,334.516 401.801,334.516 
	401.801,396.602 "/>
<polygon fill="#31E7B6" points="416.047,392.517 441.916,346.316 441.643,345.771 413.054,345.771 413.233,334.516 455.354,334.516 
	455.354,346.316 426.034,398.052 "/>
<g>
	<path fill="#FFFFFF" d="M82.984,730.859c2.975-0.626,7.671-1.096,12.446-1.096c6.811,0,11.194,1.174,14.481,3.836
		c2.74,2.035,4.384,5.166,4.384,9.314c0,5.088-3.366,9.55-8.924,11.585v0.157c5.01,1.252,10.881,5.4,10.881,13.229
		c0,4.54-1.801,7.984-4.462,10.567c-3.679,3.366-9.628,4.932-18.239,4.932c-4.697,0-8.297-0.313-10.567-0.626V730.859z
		 M89.794,752.464h6.184c7.201,0,11.428-3.757,11.428-8.845c0-6.185-4.697-8.611-11.585-8.611c-3.131,0-4.932,0.235-6.027,0.47
		V752.464z M89.794,777.748c1.331,0.234,3.288,0.312,5.714,0.312c7.045,0,13.542-2.583,13.542-10.254
		c0-7.202-6.184-10.176-13.621-10.176h-5.636V777.748z"/>
	<path fill="#FFFFFF" d="M121.184,765.224c0.157,9.314,6.105,13.15,12.994,13.15c4.932,0,7.906-0.861,10.489-1.957l1.174,4.932
		c-2.427,1.096-6.576,2.349-12.603,2.349c-11.663,0-18.63-7.672-18.63-19.101c0-11.428,6.732-20.43,17.769-20.43
		c12.368,0,15.655,10.88,15.655,17.847c0,1.409-0.156,2.505-0.235,3.21H121.184z M141.379,760.292
		c0.078-4.384-1.8-11.194-9.55-11.194c-6.967,0-10.02,6.419-10.568,11.194H141.379z"/>
	<path fill="#FFFFFF" d="M148.737,727.337h6.888v55.577h-6.888V727.337z"/>
	<path fill="#FFFFFF" d="M193.668,763.658c0,14.012-9.707,20.117-18.865,20.117c-10.254,0-18.16-7.515-18.16-19.491
		c0-12.681,8.297-20.117,18.787-20.117C186.31,744.167,193.668,752.072,193.668,763.658z M163.609,764.049
		c0,8.298,4.775,14.56,11.507,14.56c6.575,0,11.507-6.184,11.507-14.716c0-6.419-3.209-14.56-11.351-14.56
		C167.132,749.333,163.609,756.848,163.609,764.049z"/>
	<path fill="#FFFFFF" d="M216.681,730.155v22.074H242.2v-22.074h6.888v52.759H242.2v-24.735h-25.519v24.735h-6.81v-52.759H216.681z"
		/>
	<path fill="#FFFFFF" d="M293.471,763.658c0,14.012-9.706,20.117-18.865,20.117c-10.254,0-18.16-7.515-18.16-19.491
		c0-12.681,8.297-20.117,18.787-20.117C286.113,744.167,293.471,752.072,293.471,763.658z M263.413,764.049
		c0,8.298,4.775,14.56,11.507,14.56c6.575,0,11.507-6.184,11.507-14.716c0-6.419-3.209-14.56-11.351-14.56
		C266.935,749.333,263.413,756.848,263.413,764.049z"/>
	<path fill="#FFFFFF" d="M300.673,756.848c0-4.462-0.078-8.298-0.312-11.82h6.027l0.234,7.437h0.313
		c1.722-5.088,5.871-8.297,10.489-8.297c0.782,0,1.331,0.078,1.957,0.234v6.497c-0.705-0.156-1.409-0.234-2.349-0.234
		c-4.854,0-8.297,3.679-9.236,8.845c-0.157,0.939-0.313,2.035-0.313,3.21v20.195h-6.811V756.848z"/>
	<path fill="#FFFFFF" d="M332.454,734.382c0.078,2.349-1.645,4.228-4.384,4.228c-2.427,0-4.148-1.879-4.148-4.228
		c0-2.427,1.8-4.305,4.305-4.305C330.81,730.077,332.454,731.955,332.454,734.382z M324.782,782.914v-37.887h6.889v37.887H324.782z"
		/>
	<path fill="#FFFFFF" d="M337.307,778.922l17.143-22.309c1.644-2.036,3.209-3.836,4.932-5.871v-0.157h-20.509v-5.558h28.885
		l-0.079,4.306l-16.907,21.996c-1.565,2.113-3.132,3.992-4.854,5.949v0.156h22.152v5.479h-30.763V778.922z"/>
	<path fill="#FFFFFF" d="M407.913,763.658c0,14.012-9.707,20.117-18.865,20.117c-10.254,0-18.16-7.515-18.16-19.491
		c0-12.681,8.298-20.117,18.786-20.117C400.555,744.167,407.913,752.072,407.913,763.658z M377.854,764.049
		c0,8.298,4.774,14.56,11.507,14.56c6.575,0,11.507-6.184,11.507-14.716c0-6.419-3.21-14.56-11.351-14.56
		S377.854,756.848,377.854,764.049z"/>
	<path fill="#FFFFFF" d="M415.114,755.282c0-3.914-0.078-7.123-0.312-10.255h6.105l0.392,6.263h0.156
		c1.879-3.601,6.263-7.123,12.524-7.123c5.245,0,13.386,3.131,13.386,16.125v22.622h-6.889v-21.84c0-6.105-2.27-11.193-8.767-11.193
		c-4.541,0-8.063,3.209-9.237,7.045c-0.313,0.861-0.47,2.035-0.47,3.21v22.778h-6.889V755.282z"/>
	<path fill="#FFFFFF" d="M465.368,734.147v10.88h9.863v5.245h-9.863v20.431c0,4.696,1.331,7.357,5.166,7.357
		c1.801,0,3.132-0.234,3.992-0.47l0.313,5.167c-1.331,0.548-3.444,0.939-6.105,0.939c-3.21,0-5.793-1.018-7.437-2.896
		c-1.957-2.035-2.661-5.401-2.661-9.863v-20.665h-5.871v-5.245h5.871v-9.08L465.368,734.147z"/>
	<path fill="#FFFFFF" d="M485.329,765.224c0.156,9.314,6.105,13.15,12.994,13.15c4.932,0,7.906-0.861,10.489-1.957l1.174,4.932
		c-2.427,1.096-6.575,2.349-12.603,2.349c-11.663,0-18.63-7.672-18.63-19.101c0-11.428,6.731-20.43,17.769-20.43
		c12.368,0,15.656,10.88,15.656,17.847c0,1.409-0.157,2.505-0.235,3.21H485.329z M505.524,760.292
		c0.079-4.384-1.8-11.194-9.55-11.194c-6.967,0-10.02,6.419-10.567,11.194H505.524z"/>
</g>
</svg>
